<?xml version="1.0" standalone="no"?><!DOCTYPE svg PUBLIC "-//W3C//DTD SVG 1.1//EN" "http://www.w3.org/Graphics/SVG/1.1/DTD/svg11.dtd"><svg t="1753181544601" class="icon" viewBox="0 0 1024 1024" version="1.1" xmlns="http://www.w3.org/2000/svg" p-id="1480" xmlns:xlink="http://www.w3.org/1999/xlink" width="200" height="200"><path d="M346.112 59.904c27.52-11.776 64-4.096 84.48 17.472 23.04 24 60.416 48.896 84.352 48.896 23.68 0 61.056-24.576 83.712-47.872 18.624-19.456 50.752-27.328 77.248-19.52l7.808 2.816 2.176 1.088 119.424 66.56c25.088 17.536 35.84 50.112 27.136 78.72l-5.824 15.616a111.104 111.104 0 0 0-5.952 26.048 105.152 105.152 0 0 0 95.68 110.592l8.96 0.448h4.096c28.416 0 50.304 22.784 56.704 56.832l2.24 12.608 1.92 12.544c3.648 25.088 5.952 49.152 5.952 69.568 0 16.256-1.472 34.944-3.904 54.592l-2.048 14.976-2.816 17.6-1.28 7.424c-5.952 31.104-24.704 52.928-49.28 56.384l-6.784 0.448h-4.736c-57.92 0-105.024 47.104-105.024 105.024l0.192 5.184c0.64 6.784 2.176 14.208 4.416 21.76l3.2 9.6 1.344 3.392c12.416 27.84 4.736 61.248-17.92 81.536l-6.592 5.12-2.304 1.536-121.536 66.88c-8.96 3.84-18.56 5.824-28.544 5.824-21.504 0-42.56-8.96-56.448-24.192-22.912-25.28-61.44-52.032-86.08-52.032-23.36 0-62.272 25.792-85.568 50.944-18.56 20.224-50.752 28.544-77.44 20.672l-7.808-2.88-2.496-1.152-117.12-65.792a71.616 71.616 0 0 1-27.072-78.72l5.824-15.552 1.664-5.312c2.24-7.36 3.776-14.592 4.352-21.248l0.256-5.568c0-54.848-42.24-100.032-96-104.64l-8.96-0.384h-4.096c-28.416 0-50.304-22.784-56.704-56.768a550.656 550.656 0 0 1-10.112-94.72c0-31.296 5.44-71.424 10.112-94.656 5.888-31.104 24.64-52.928 49.152-56.32l6.784-0.512h4.8c57.92 0 105.024-47.104 105.024-105.024l-0.192-5.184a108.352 108.352 0 0 0-4.416-21.76l-3.2-9.6-1.408-3.328a71.552 71.552 0 0 1 18.048-81.6l6.592-5.12 2.368-1.536L346.112 59.904z m27.648 84.864l-92.16 50.688 1.792 5.056c4.224 13.184 7.296 27.2 8.576 41.216l0.64 14.016a192.96 192.96 0 0 1-165.632 191.104l-3.904 0.448-1.28 7.936a480 480 0 0 0-4.672 44.096l-0.32 12.992c0 16.32 2.048 36.8 5.056 56.96l1.216 7.936 3.904 0.448a192.96 192.96 0 0 1 165.312 179.584l0.384 11.52c0 18.752-3.648 37.76-9.28 55.424l-1.792 5.056 85.568 47.936 1.344-1.28c7.04-6.912 15.616-14.464 25.088-21.952l9.728-7.424c37.12-27.2 72.96-41.152 106.752-41.152 33.984 0 70.144 14.208 107.52 41.856 12.48 9.344 23.552 18.944 32.832 27.904l3.392 3.392 89.536-49.408-1.792-5.056a195.968 195.968 0 0 1-8.576-41.216l-0.64-14.08a192.96 192.96 0 0 1 165.76-191.104l3.84-0.448 1.28-8.128a480 480 0 0 0 4.672-43.904l0.32-12.864c0-16.256-1.984-36.48-4.992-56.896l-1.344-8.128-3.84-0.448a192.96 192.96 0 0 1-165.376-179.584l-0.32-11.52c0-18.88 3.712-37.952 9.28-55.488l1.728-4.992-88.384-49.024-3.072 2.944a303.36 303.36 0 0 1-23.68 19.648l-9.216 6.72c-36.288 25.6-71.296 38.72-104.064 38.72-33.088 0-68.352-13.44-104.96-39.488a325.76 325.76 0 0 1-32.64-26.496l-3.584-3.52z m136.704 188.608a178.496 178.496 0 0 1 178.24 178.24 178.432 178.432 0 0 1-178.24 178.304A178.432 178.432 0 0 1 332.16 511.616 178.496 178.496 0 0 1 510.464 333.44z m0 88c-49.792 0-90.24 40.512-90.24 90.24 0 49.792 40.448 90.304 90.24 90.304 49.792 0 90.24-40.512 90.24-90.24 0-49.792-40.448-90.304-90.24-90.304z" fill="#ffffff" p-id="1481"></path></svg>